# xmcd CD database file
#
# Track frame offsets:
#	150
#	15007
#	34720
#	51344
#	67947
#	89577
#	111020
#	128975
#	148254
#	167576
#	184264
#	203441
#
# Disc length: 2930 seconds
#
# Revision: 0
# Processed by: cddbd v1.5.2PL0 Copyright (c) Steve Scherf et al.
# Submitted via: CDex 1.70beta2
#
DISCID=9d0b700c
DTITLE=The Bliss - The new House
DYEAR=1900
DGENRE=Jazz
TTITLE0=Just stop
TTITLE1=Oneness
TTITLE2=As good as it gets
TTITLE3=Movin' in time
TTITLE4=Somethin' to say
TTITLE5=Brother in music
TTITLE6=Conversation
TTITLE7=New begining-Chill-House remix
TTITLE8=We wanted (so hard to try)
TTITLE9=Make yourself at home
TTITLE10=Love
TTITLE11=Two buks a gallon
EXTD=
EXTT0=
EXTT1=
EXTT2=
EXTT3=
EXTT4=
EXTT5=
EXTT6=
EXTT7=
EXTT8=
EXTT9=
EXTT10=
EXTT11=
PLAYORDER=
